<svg width="21" height="26" viewBox="0 0 21 26" fill="none" xmlns="http://www.w3.org/2000/svg">
<path d="M9.45403 24.6561L9.45381 24.6561L9.45469 24.6627C9.52052 25.1589 9.93715 25.5444 10.445 25.5444C10.999 25.5444 11.4444 25.0858 11.4444 24.5247L11.4444 22.0461C16.4325 21.5335 20.3223 17.2293 20.3223 11.9979C20.3223 11.4368 19.877 10.9781 19.3229 10.9781C18.7689 10.9781 18.3236 11.4368 18.3236 11.9979C18.3236 16.4519 14.7945 20.0577 10.4445 20.0577C6.09454 20.0577 2.5655 16.4519 2.5655 11.9979C2.5655 11.4368 2.12016 10.9781 1.56612 10.9781C1.01208 10.9781 0.566748 11.4368 0.566748 11.9979C0.566748 17.2297 4.4572 21.5342 9.44586 22.0462L9.44561 24.5247H9.44539L9.44582 24.5313L9.45403 24.6561ZM15.9844 6.40813C15.9844 3.3687 13.5736 0.9 10.5961 0.9H10.2934C7.31593 0.9 4.90511 3.3687 4.90511 6.40813V11.9885C4.90511 15.0288 7.31558 17.4967 10.2934 17.4967H10.5961C13.5739 17.4967 15.9844 15.0288 15.9844 11.9885V6.40813ZM10.2934 2.9395H10.5961C12.4655 2.9395 13.9857 4.49084 13.9857 6.40813V11.9885C13.9857 13.9065 12.4659 15.4572 10.5961 15.4572H10.2934C8.42358 15.4572 6.90386 13.9065 6.90386 11.9885V6.40813C6.90386 4.49084 8.42401 2.9395 10.2934 2.9395Z" fill="#AAAAAA" stroke="#AAAAAA" stroke-width="0.2"/>
</svg>
