<svg width="21" height="25" viewBox="0 0 21 25" fill="none" xmlns="http://www.w3.org/2000/svg">
<path d="M18.4728 9.29059L18.4739 18.9917C18.4739 20.8815 16.9392 22.4396 15.0787 22.4396H5.70975C3.67847 22.4396 2.19258 20.9829 2.19258 18.9917V6.26707C2.19258 4.42604 3.80114 2.87305 5.70975 2.87305H5.70978L12.2236 2.87108L12.224 5.29159H12.2239L12.224 5.29436L12.2302 5.51534L12.2301 5.51534L12.2303 5.51813C12.3476 7.61864 14.085 9.2869 16.2147 9.29141C16.7093 9.29254 17.1542 9.29337 17.5454 9.29384L17.5459 9.29384L18.4728 9.29059ZM11.0905 10.8014L11.0907 10.8014L11.0898 10.7947C11.0249 10.3164 10.6151 9.94785 10.1191 9.94785C9.57804 9.94785 9.13943 10.3864 9.13942 10.9275C9.13942 10.9275 9.13942 10.9275 9.13942 10.9275L9.13898 12.8212H7.24517V12.821L7.23846 12.8214L7.11909 12.8294L7.11908 12.8292L7.11236 12.8301C6.63409 12.895 6.26551 13.3048 6.26551 13.8008C6.26551 14.3419 6.70412 14.7805 7.24517 14.7805H9.13898L9.13942 16.6758H9.1392L9.13965 16.6825L9.14768 16.8019L9.14745 16.8019L9.14836 16.8086C9.21324 17.2869 9.62304 17.6555 10.1191 17.6555C10.6601 17.6555 11.0987 17.2169 11.0987 16.6758V16.6758L11.0983 14.7805H12.9935V14.7807L13.0002 14.7803L13.1195 14.7723L13.1196 14.7725L13.1263 14.7716C13.6045 14.7067 13.9731 14.2969 13.9731 13.8008C13.9731 13.2598 13.5345 12.8212 12.9935 12.8212H11.0983L11.0987 10.9275H11.099L11.0985 10.9208L11.0905 10.8014ZM14.183 4.00605L17.3764 7.33209L16.219 7.33209C15.0938 7.32972 14.1833 6.41704 14.1833 5.29158V5.29156L14.183 4.00605ZM13.3604 0.912495C13.3093 0.904266 13.257 0.9 13.2036 0.9C13.1506 0.9 13.0985 0.904227 13.0476 0.91238L5.70975 0.913723C5.70974 0.913723 5.70974 0.913723 5.70973 0.913723C2.73985 0.913733 0.233252 3.32257 0.233252 6.26707V18.9917C0.233252 22.077 2.60819 24.399 5.70975 24.399H15.0787C18.0304 24.399 20.4333 21.9546 20.4333 18.9917V8.08152C20.4333 7.82858 20.3354 7.58544 20.1602 7.403L14.2184 1.21487C14.0338 1.02257 13.7788 0.913836 13.5122 0.913723L13.5126 0.913726L13.5118 1.01372V0.913723L13.3604 0.912495Z" fill="#AAAAAA" stroke="#AAAAAA" stroke-width="0.2"/>
</svg>
