<svg width="72" height="80" viewBox="0 0 72 80" fill="none" xmlns="http://www.w3.org/2000/svg">
<g filter="url(#filter0_d_938_2814)">
<rect x="23" y="20" width="32" height="32" rx="6" fill="white"/>
<path d="M40.1486 43.2487L40.1485 43.2487L40.1471 43.2498C39.7425 43.5532 39.2374 43.6885 38.7349 43.6313C38.233 43.5741 37.7781 43.3299 37.4703 42.9559C37.2123 42.6425 36.7429 42.5918 36.4205 42.8405C36.0961 43.0906 36.0416 43.5502 36.3012 43.8656C36.8569 44.5408 37.6703 44.9758 38.5607 45.0772C39.4499 45.1785 40.3459 44.9391 41.0514 44.41C41.2614 44.2586 41.4591 44.0742 41.6302 43.8682C41.8913 43.5541 41.8391 43.0943 41.5159 42.8426C41.1947 42.5924 40.725 42.641 40.4656 42.9532C40.3737 43.0638 40.2672 43.1631 40.1486 43.2487ZM32.4549 33.2976L32.4549 33.2976L32.4549 33.2992L32.4526 33.777C32.318 34.3411 32.032 34.8643 31.6208 35.2953L31.6206 35.2951L31.6156 35.3013L31.5523 35.3791L31.5521 35.3789L31.5476 35.3854C31.1595 35.9491 30.9363 36.602 30.9017 37.2766L30.9016 37.2766L30.9016 37.2813L30.9008 37.4949C30.8812 38.3824 31.1994 39.2594 31.7962 39.9552L31.796 39.9553L31.801 39.9604C32.6061 40.7733 33.6486 41.2584 34.7671 41.3614C37.5755 41.653 40.4167 41.653 43.2329 41.3607C44.3437 41.2627 45.3895 40.7763 46.1618 39.9925L46.162 39.9926L46.1659 39.9881C46.7508 39.319 47.0715 38.514 47.099 37.6791L47.099 37.6791L47.099 37.676L47.1 37.3131H47.1001L47.0998 37.3083C47.0678 36.6047 46.8432 35.9507 46.45 35.3888L46.4502 35.3887L46.4456 35.383L46.3875 35.3117L46.3876 35.3117L46.3847 35.3084L46.2439 35.15C45.9349 34.7806 45.7094 34.3556 45.5809 33.9015L45.5417 33.7441L45.5336 33.5789C45.5336 33.5786 45.5336 33.5783 45.5336 33.578C45.5319 33.5263 45.5307 33.4707 45.5301 33.4072C45.5301 33.407 45.5301 33.4069 45.5301 33.4067L45.5292 32.6987L45.5292 32.6979C45.527 32.4642 45.5198 32.2966 45.5027 32.1078L45.5026 32.1068C45.2047 29.1258 42.2419 26.9 39.0339 26.9H38.9668C35.7573 26.9 32.795 29.1273 32.5069 32.1032L32.5068 32.1038C32.4878 32.3142 32.4749 32.529 32.4666 32.7599H32.4665L32.4665 32.7613L32.4549 33.2976ZM45.2336 36.2398L45.2339 36.2396C45.4573 36.571 45.5845 36.9515 45.6033 37.3432L45.6026 37.4877L45.6025 37.4877L45.6026 37.4907C45.6169 38.0548 45.4219 38.5906 45.0522 39.0159C44.558 39.5146 43.8497 39.8446 43.0866 39.9118L43.085 39.912C40.3637 40.1945 37.6286 40.1945 34.9177 39.913L34.9166 39.9129C34.1453 39.8419 33.4363 39.512 32.9124 38.9859C32.5791 38.5934 32.3858 38.0594 32.398 37.5118L32.398 37.5097L32.3982 37.3176L32.414 37.153C32.4518 36.8807 32.5472 36.6037 32.6953 36.3479L32.7682 36.2327C33.3543 35.5999 33.757 34.831 33.9348 34.0019L33.9354 34.002L33.9365 33.9915L33.95 33.8639L33.9505 33.8639L33.9506 33.8541L33.9567 33.0282L33.9717 32.6106C33.9785 32.4797 33.9872 32.3556 33.998 32.2354C34.2069 30.0808 36.4643 28.3558 38.9668 28.3558H39.0339C41.5355 28.3558 43.7954 30.0805 44.0117 32.2414C44.0245 32.3837 44.0303 32.52 44.032 32.725C44.032 32.7251 44.032 32.7252 44.032 32.7252L44.0346 33.5389H44.0345L44.0346 33.5408C44.0375 33.6727 44.0429 33.7828 44.0522 33.9064L44.0519 33.9064L44.0529 33.9133L44.0651 33.9967L44.0646 33.9968L44.0669 34.0062L44.128 34.2544L44.1279 34.2544L44.1287 34.2571C44.3136 34.9279 44.6456 35.5534 45.1022 36.0924L45.1022 36.0924L45.1039 36.0943L45.2336 36.2398Z" fill="#0D53FC" stroke="#0D53FC" stroke-width="0.2"/>
</g>
<defs>
<filter id="filter0_d_938_2814" x="0" y="0" width="80" height="80" filterUnits="userSpaceOnUse" color-interpolation-filters="sRGB">
<feFlood flood-opacity="0" result="BackgroundImageFix"/>
<feColorMatrix in="SourceAlpha" type="matrix" values="0 0 0 0 0 0 0 0 0 0 0 0 0 0 0 0 0 0 127 0" result="hardAlpha"/>
<feOffset dx="1" dy="4"/>
<feGaussianBlur stdDeviation="12"/>
<feColorMatrix type="matrix" values="0 0 0 0 0 0 0 0 0 0 0 0 0 0 0 0 0 0 0.1 0"/>
<feBlend mode="normal" in2="BackgroundImageFix" result="effect1_dropShadow_938_2814"/>
<feBlend mode="normal" in="SourceGraphic" in2="effect1_dropShadow_938_2814" result="shape"/>
</filter>
</defs>
</svg>
