<svg width="49" height="48" viewBox="0 0 49 48" fill="none" xmlns="http://www.w3.org/2000/svg">
<path d="M32.9393 20.2448L32.9396 20.2451L32.9462 20.2362C33.4256 19.5901 33.3725 18.6736 32.7866 18.0877C32.1422 17.4433 31.0975 17.4433 30.4531 18.0877C30.4531 18.0877 30.4531 18.0877 30.4531 18.0877L22.1261 26.4119L18.5463 22.8334L18.5466 22.8331L18.5383 22.8259L18.37 22.6807L18.3703 22.6804L18.3614 22.6738C17.7152 22.1946 16.7986 22.2479 16.2129 22.8339C15.5687 23.4784 15.5689 24.5231 16.2134 25.1674L20.9614 29.9134L20.9611 29.9136L20.9694 29.9208L21.1377 30.066L21.1374 30.0663L21.1463 30.0729C21.7924 30.5521 22.7088 30.4989 23.2946 29.9131L32.7866 20.4211L32.7869 20.4214L32.7941 20.4131L32.9393 20.2448ZM44.6509 15.8324C44.6509 12.3132 43.5087 9.31639 41.4964 7.19821C39.4835 5.0793 36.6098 3.8504 33.1689 3.8504H15.8309C12.396 3.8504 9.52287 5.08093 7.50893 7.20052C5.49568 9.3194 4.35085 12.3162 4.35085 15.8324V32.1684C4.35085 35.6877 5.49256 38.6846 7.50437 40.8027C9.51687 42.9216 12.39 44.1504 15.8309 44.1504H33.1669C36.6087 44.1504 39.4828 42.9216 41.4961 40.8027C43.5086 38.6846 44.6509 35.6877 44.6509 32.1684V15.8324ZM15.8309 7.1504H33.1689C35.684 7.1504 37.7253 8.0049 39.1384 9.50835C40.5525 11.0128 41.3509 13.1813 41.3509 15.8324V32.1684C41.3509 34.8196 40.5525 36.9881 39.1381 38.4925C37.7247 39.9959 35.6829 40.8504 33.1669 40.8504H15.8309C13.316 40.8504 11.2752 39.996 9.86248 38.4927C8.44883 36.9883 7.65085 34.8198 7.65085 32.1684V15.8324C7.65085 13.1849 8.45151 11.0163 9.86665 9.51091C11.2809 8.0065 13.3217 7.1504 15.8309 7.1504Z" fill="#0D53FC" stroke="#0D53FC" stroke-width="0.3"/>
</svg>
